<?xml version="1.0" encoding="UTF-8" standalone="no"?>
<!-- http://code.google.com/p/vector-playing-cards/ -->

<svg
   xmlns:dc="http://purl.org/dc/elements/1.1/"
   xmlns:cc="http://creativecommons.org/ns#"
   xmlns:rdf="http://www.w3.org/1999/02/22-rdf-syntax-ns#"
   xmlns:svg="http://www.w3.org/2000/svg"
   xmlns="http://www.w3.org/2000/svg"
   xmlns:xlink="http://www.w3.org/1999/xlink"
   xmlns:sodipodi="http://sodipodi.sourceforge.net/DTD/sodipodi-0.dtd"
   xmlns:inkscape="http://www.inkscape.org/namespaces/inkscape"
   width="167.0869141pt"
   height="242.6669922pt"
   viewBox="0 0 167.0869141 242.6669922"
   xml:space="preserve"
   id="svg2"
   version="1.1"
   inkscape:version="0.48.5 r10040"
   sodipodi:docname="p_back.svg"
   inkscape:export-filename="/home/byron/art/cards/final/PNGs/2_of_clubs.png"
   inkscape:export-xdpi="215.44792"
   inkscape:export-ydpi="215.44792"><metadata
   id="metadata43"><rdf:RDF><cc:Work
       rdf:about=""><dc:format>image/svg+xml</dc:format><dc:type
         rdf:resource="http://purl.org/dc/dcmitype/StillImage" /><dc:title /></cc:Work></rdf:RDF></metadata><defs
   id="defs41"><radialGradient
     inkscape:collect="always"
     xlink:href="#linearGradient2984"
     id="radialGradient3760"
     cx="48.231091"
     cy="18.137882"
     fx="48.231091"
     fy="18.137882"
     r="9.5"
     gradientUnits="userSpaceOnUse"
     gradientTransform="matrix(-1.5605256,0.01828294,-0.02684055,-2.2909528,123.98377,58.809108)" /><linearGradient
     id="linearGradient2984"><stop
       style="stop-color:#000000;stop-opacity:1;"
       offset="0"
       id="stop2986" /><stop
       style="stop-color:#000000;stop-opacity:0.65648854;"
       offset="1"
       id="stop2988" /></linearGradient><radialGradient
     inkscape:collect="always"
     xlink:href="#linearGradient3784"
     id="radialGradient3792"
     cx="171.48665"
     cy="511.22299"
     fx="171.48665"
     fy="511.22299"
     r="81.902771"
     gradientTransform="matrix(1.1529891,-0.67391547,0.39482025,0.67549043,-233.63262,270.40076)"
     gradientUnits="userSpaceOnUse" /><linearGradient
     id="linearGradient3784"><stop
       style="stop-color:#ffffff;stop-opacity:0.53435117;"
       offset="0"
       id="stop3786" /><stop
       style="stop-color:#000000;stop-opacity:0;"
       offset="1"
       id="stop3788" /></linearGradient><radialGradient
     r="81.902771"
     fy="511.22299"
     fx="171.48665"
     cy="511.22299"
     cx="171.48665"
     gradientTransform="matrix(1.1529891,-0.67391547,0.39482025,0.67549043,-233.63262,270.40076)"
     gradientUnits="userSpaceOnUse"
     id="radialGradient3855"
     xlink:href="#linearGradient3784-4"
     inkscape:collect="always" /><linearGradient
     id="linearGradient3784-4"><stop
       style="stop-color:#ffffff;stop-opacity:0.51908398;"
       offset="0"
       id="stop3786-8" /><stop
       style="stop-color:#000000;stop-opacity:0;"
       offset="1"
       id="stop3788-6" /></linearGradient><radialGradient
     r="81.902771"
     fy="461.84113"
     fx="181.69392"
     cy="461.84113"
     cx="181.69392"
     gradientTransform="matrix(1.1529891,-0.67391547,0.39482025,0.67549043,-233.63262,270.40076)"
     gradientUnits="userSpaceOnUse"
     id="radialGradient3916"
     xlink:href="#linearGradient3784-3"
     inkscape:collect="always" /><linearGradient
     id="linearGradient3784-3"><stop
       style="stop-color:#ffffff;stop-opacity:0.70229006;"
       offset="0"
       id="stop3786-86" /><stop
       style="stop-color:#000000;stop-opacity:0;"
       offset="1"
       id="stop3788-2" /></linearGradient><radialGradient
     xlink:href="#linearGradient172"
     id="radialGradient1399"
     gradientTransform="scale(1.045233,0.956725)"
     cx="446.77762"
     cy="1219.4125"
     fx="446.77762"
     fy="1219.4125"
     r="195.07191"
     gradientUnits="userSpaceOnUse" /><linearGradient
     id="linearGradient172"><stop
       style="stop-color:#3f2600;stop-opacity:0.6;"
       offset="0"
       id="stop173" /><stop
       style="stop-color:#3f2600;stop-opacity:0;"
       offset="1"
       id="stop174" /></linearGradient><linearGradient
     xlink:href="#linearGradient153"
     id="linearGradient1401"
     gradientUnits="userSpaceOnUse"
     x1="400.57785"
     y1="369.53015"
     x2="400.84448"
     y2="304.07886"
     gradientTransform="scale(0.575262,1.738339)" /><linearGradient
     id="linearGradient153"><stop
       style="stop-color:#ffeed7;stop-opacity:1;"
       offset="0"
       id="stop154" /><stop
       style="stop-color:#bdbfc2;stop-opacity:1;"
       offset="1"
       id="stop155" /></linearGradient><linearGradient
     xlink:href="#linearGradient138"
     id="linearGradient1403"
     gradientUnits="userSpaceOnUse"
     x1="303.01761"
     y1="237.93179"
     x2="297.0856"
     y2="330.09561"
     gradientTransform="scale(1.116071,0.896001)" /><linearGradient
     id="linearGradient138"><stop
       style="stop-color:#ffffff;stop-opacity:0.8;"
       offset="0"
       id="stop139" /><stop
       style="stop-color:#ffffff;stop-opacity:0;"
       offset="1"
       id="stop140" /></linearGradient><linearGradient
     xlink:href="#linearGradient153"
     id="linearGradient1405"
     gradientUnits="userSpaceOnUse"
     gradientTransform="scale(0.816497,1.224744)"
     x1="378.93771"
     y1="278.60202"
     x2="380.27319"
     y2="243.91606" /><linearGradient
     id="linearGradient3392"><stop
       style="stop-color:#ffeed7;stop-opacity:1;"
       offset="0"
       id="stop3394" /><stop
       style="stop-color:#bdbfc2;stop-opacity:1;"
       offset="1"
       id="stop3396" /></linearGradient><linearGradient
     xlink:href="#linearGradient153"
     id="linearGradient1407"
     gradientUnits="userSpaceOnUse"
     x1="381.38742"
     y1="277.495"
     x2="380.5517"
     y2="245.68338"
     gradientTransform="scale(0.816497,1.224744)" /><linearGradient
     id="linearGradient3399"><stop
       style="stop-color:#ffeed7;stop-opacity:1;"
       offset="0"
       id="stop3401" /><stop
       style="stop-color:#bdbfc2;stop-opacity:1;"
       offset="1"
       id="stop3403" /></linearGradient><linearGradient
     xlink:href="#linearGradient167"
     id="linearGradient1409"
     gradientUnits="userSpaceOnUse"
     gradientTransform="scale(0.816497,1.224744)"
     x1="379.09573"
     y1="240.92712"
     x2="376.79556"
     y2="281.01636" /><linearGradient
     id="linearGradient167"><stop
       style="stop-color:#ffffff;stop-opacity:0.65;"
       offset="0"
       id="stop168" /><stop
       style="stop-color:#ffffff;stop-opacity:0;"
       offset="1"
       id="stop169" /></linearGradient><linearGradient
     xlink:href="#linearGradient167"
     id="linearGradient1411"
     gradientUnits="userSpaceOnUse"
     x1="389.63535"
     y1="242.28218"
     x2="387.06866"
     y2="281.32513"
     gradientTransform="scale(0.816497,1.224744)" /><linearGradient
     id="linearGradient3410"><stop
       style="stop-color:#ffffff;stop-opacity:0.65;"
       offset="0"
       id="stop3412" /><stop
       style="stop-color:#ffffff;stop-opacity:0;"
       offset="1"
       id="stop3414" /></linearGradient><linearGradient
     xlink:href="#linearGradient153"
     id="linearGradient1413"
     gradientUnits="userSpaceOnUse"
     spreadMethod="reflect"
     x1="437.57941"
     y1="528.87177"
     x2="437.57941"
     y2="394.10361"
     gradientTransform="scale(0.812855,1.230232)" /><linearGradient
     id="linearGradient3417"><stop
       style="stop-color:#ffeed7;stop-opacity:1;"
       offset="0"
       id="stop3419" /><stop
       style="stop-color:#bdbfc2;stop-opacity:1;"
       offset="1"
       id="stop3421" /></linearGradient><linearGradient
     xlink:href="#linearGradient153"
     id="linearGradient1415"
     gradientUnits="userSpaceOnUse"
     x1="375.17325"
     y1="419.78485"
     x2="377.48541"
     y2="324.03815"
     gradientTransform="scale(0.649784,1.538974)" /><linearGradient
     id="linearGradient3424"><stop
       style="stop-color:#ffeed7;stop-opacity:1;"
       offset="0"
       id="stop3426" /><stop
       style="stop-color:#bdbfc2;stop-opacity:1;"
       offset="1"
       id="stop3428" /></linearGradient><linearGradient
     xlink:href="#linearGradient138"
     id="linearGradient1417"
     gradientUnits="userSpaceOnUse"
     x1="320.75104"
     y1="498.17776"
     x2="321.32224"
     y2="614.50439"
     gradientTransform="scale(1.074798,0.930408)" /><linearGradient
     id="linearGradient3431"><stop
       style="stop-color:#ffffff;stop-opacity:0.8;"
       offset="0"
       id="stop3433" /><stop
       style="stop-color:#ffffff;stop-opacity:0;"
       offset="1"
       id="stop3435" /></linearGradient><linearGradient
     xlink:href="#linearGradient167"
     id="linearGradient1419"
     gradientUnits="userSpaceOnUse"
     x1="322.48257"
     y1="435.26761"
     x2="323.2514"
     y2="488.48251"
     gradientTransform="scale(1.077001,0.928504)" /><linearGradient
     id="linearGradient3438"><stop
       style="stop-color:#ffffff;stop-opacity:0.65;"
       offset="0"
       id="stop3440" /><stop
       style="stop-color:#ffffff;stop-opacity:0;"
       offset="1"
       id="stop3442" /></linearGradient><linearGradient
     xlink:href="#linearGradient167"
     id="linearGradient1421"
     gradientUnits="userSpaceOnUse"
     x1="411.2215"
     y1="242.94365"
     x2="411.2215"
     y2="331.44858"
     gradientTransform="scale(0.571707,1.749147)" /><linearGradient
     id="linearGradient3445"><stop
       style="stop-color:#ffffff;stop-opacity:0.65;"
       offset="0"
       id="stop3447" /><stop
       style="stop-color:#ffffff;stop-opacity:0;"
       offset="1"
       id="stop3449" /></linearGradient><linearGradient
     xlink:href="#linearGradient167"
     id="linearGradient1423"
     gradientUnits="userSpaceOnUse"
     x1="867.34546"
     y1="234.73897"
     x2="867.33453"
     y2="314.83911"
     gradientTransform="scale(0.572667,1.746214)" /><linearGradient
     id="linearGradient3452"><stop
       style="stop-color:#ffffff;stop-opacity:0.65;"
       offset="0"
       id="stop3454" /><stop
       style="stop-color:#ffffff;stop-opacity:0;"
       offset="1"
       id="stop3456" /></linearGradient><linearGradient
     xlink:href="#linearGradient162"
     id="linearGradient1425"
     gradientUnits="userSpaceOnUse"
     x1="236.25362"
     y1="657.11133"
     x2="212.5099"
     y2="737.41229"
     gradientTransform="scale(1.011514,0.988617)" /><linearGradient
     id="linearGradient162"><stop
       style="stop-color:#ffa63f;stop-opacity:1;"
       offset="0"
       id="stop163" /><stop
       style="stop-color:#ffff00;stop-opacity:1;"
       offset="1"
       id="stop164" /></linearGradient><linearGradient
     xlink:href="#linearGradient153"
     id="linearGradient1427"
     gradientUnits="userSpaceOnUse"
     x1="381.56607"
     y1="655.73102"
     x2="279.64313"
     y2="386.66583"
     gradientTransform="scale(1.065499,0.938527)" /><linearGradient
     id="linearGradient3463"><stop
       style="stop-color:#ffeed7;stop-opacity:1;"
       offset="0"
       id="stop3465" /><stop
       style="stop-color:#bdbfc2;stop-opacity:1;"
       offset="1"
       id="stop3467" /></linearGradient><linearGradient
     xlink:href="#linearGradient162"
     id="linearGradient1429"
     gradientUnits="userSpaceOnUse"
     x1="218.11714"
     y1="630.30475"
     x2="203.12654"
     y2="737.8537"
     gradientTransform="scale(1.009851,0.990245)" /><linearGradient
     id="linearGradient3470"><stop
       style="stop-color:#ffa63f;stop-opacity:1;"
       offset="0"
       id="stop3472" /><stop
       style="stop-color:#ffff00;stop-opacity:1;"
       offset="1"
       id="stop3474" /></linearGradient><linearGradient
     xlink:href="#linearGradient167"
     id="linearGradient1431"
     gradientUnits="userSpaceOnUse"
     gradientTransform="scale(1.007724,0.992335)"
     x1="117.88966"
     y1="587.23602"
     x2="182.24524"
     y2="704.73077" /><linearGradient
     id="linearGradient3477"><stop
       style="stop-color:#ffffff;stop-opacity:0.65;"
       offset="0"
       id="stop3479" /><stop
       style="stop-color:#ffffff;stop-opacity:0;"
       offset="1"
       id="stop3481" /></linearGradient><linearGradient
     xlink:href="#linearGradient167"
     id="linearGradient1433"
     gradientUnits="userSpaceOnUse"
     x1="223.10072"
     y1="570.41809"
     x2="230.53499"
     y2="710.97723"
     gradientTransform="scale(0.999504,1.000496)" /><linearGradient
     id="linearGradient3484"><stop
       style="stop-color:#ffffff;stop-opacity:0.65;"
       offset="0"
       id="stop3486" /><stop
       style="stop-color:#ffffff;stop-opacity:0;"
       offset="1"
       id="stop3488" /></linearGradient><linearGradient
     xlink:href="#linearGradient167"
     id="linearGradient1435"
     gradientUnits="userSpaceOnUse"
     x1="316.93988"
     y1="474.01779"
     x2="371.60889"
     y2="582.63507"
     gradientTransform="scale(1.065499,0.938527)" /><linearGradient
     id="linearGradient3491"><stop
       style="stop-color:#ffffff;stop-opacity:0.65;"
       offset="0"
       id="stop3493" /><stop
       style="stop-color:#ffffff;stop-opacity:0;"
       offset="1"
       id="stop3495" /></linearGradient><linearGradient
     xlink:href="#linearGradient162"
     id="linearGradient1437"
     gradientUnits="userSpaceOnUse"
     x1="284.68652"
     y1="410.46326"
     x2="285.45923"
     y2="485.69934"
     gradientTransform="scale(1.218684,0.820557)" /><linearGradient
     id="linearGradient3498"><stop
       style="stop-color:#ffa63f;stop-opacity:1;"
       offset="0"
       id="stop3500" /><stop
       style="stop-color:#ffff00;stop-opacity:1;"
       offset="1"
       id="stop3502" /></linearGradient><linearGradient
     y2="482.55939"
     x2="288.37628"
     y1="398.85422"
     x1="288.82358"
     gradientTransform="scale(1.221941,0.81837)"
     gradientUnits="userSpaceOnUse"
     id="linearGradient3382"
     xlink:href="#linearGradient167"
     inkscape:collect="always" /><linearGradient
     id="linearGradient3505"><stop
       style="stop-color:#ffffff;stop-opacity:0.65;"
       offset="0"
       id="stop3507" /><stop
       style="stop-color:#ffffff;stop-opacity:0;"
       offset="1"
       id="stop3509" /></linearGradient><linearGradient
     y2="482.55939"
     x2="288.37628"
     y1="398.85422"
     x1="288.82358"
     gradientTransform="scale(1.221941,0.81837)"
     gradientUnits="userSpaceOnUse"
     id="linearGradient3540"
     xlink:href="#linearGradient167"
     inkscape:collect="always" /></defs><sodipodi:namedview
   pagecolor="#ffffff"
   bordercolor="#666666"
   borderopacity="1"
   objecttolerance="10"
   gridtolerance="10"
   guidetolerance="10"
   inkscape:pageopacity="0"
   inkscape:pageshadow="2"
   inkscape:window-width="1440"
   inkscape:window-height="837"
   id="namedview39"
   showgrid="false"
   inkscape:zoom="1.2168437"
   inkscape:cx="-84.395137"
   inkscape:cy="82.310054"
   inkscape:window-x="-8"
   inkscape:window-y="-8"
   inkscape:window-maximized="1"
   inkscape:current-layer="svg2" />
	<g
   id="Layer_x0020_1"
   style="fill-rule:nonzero;clip-rule:nonzero;stroke:#000000;stroke-miterlimit:4;">
		<path
   style="fill:#FFFFFF;stroke-width:0.5;"
   d="M166.8369141,235.5478516c0,3.7773438-3.0869141,6.8691406-6.8710938,6.8691406H7.1108398c-3.7749023,0-6.8608398-3.0917969-6.8608398-6.8691406V7.1201172C0.25,3.3427734,3.3359375,0.25,7.1108398,0.25h152.8549805    c3.7841797,0,6.8710938,3.0927734,6.8710938,6.8701172v228.4277344z"
   id="path5" />
		<g
   style="stroke:none;"
   id="g7">
			<g
   id="g9">
				
			</g>
			
		</g>
		<g
   id="g15">
			
		</g>
		<g
   id="g19">
			
		</g>
		<g
   style="stroke:none;"
   id="g23">
			<g
   id="g25">
				
			</g>
			
		</g>
		<g
   style="stroke:none;"
   id="g31">
			<g
   id="g33">
				
			</g>
			
		</g>
	</g>










<rect
   width="153.77893"
   height="225.45264"
   ry="0"
   x="6.9339538"
   y="7.9858084"
   id="rect13539"
   style="fill:#ff0000;stroke:#131f67;stroke-width:3.87996936;stroke-linecap:round;stroke-linejoin:miter;stroke-miterlimit:4;stroke-opacity:1;stroke-dasharray:none;display:inline" /><g
   style="display:inline"
   id="g1369"
   transform="matrix(0.24278572,0,0,0.22347892,-69.13695,26.821767)"><path
     inkscape:connector-curvature="0"
     transform="matrix(1.4177,0,0,0.414745,-38.7944,222.194)"
     d="m 670.88202,1166.6423 a 203.89551,186.63016 0 1 1 -407.79102,0 203.89551,186.63016 0 1 1 407.79102,0 z"
     id="path175"
     style="fill:url(#radialGradient1399);stroke:none" /><path
     inkscape:connector-curvature="0"
     transform="matrix(1.25,0,0,1.25,185.454,-167.505)"
     id="path106"
     d="m 223.627,632.24 c -22.388,-32.223 -26.754,-136.984 25.487,-201.43 25.886,-30.918 32.49,-52.465 34.531,-81.393 1.389,-32.979 -23.325,-131.442 69.883,-138.944 94.406,-7.532 89.336,85.66 88.793,134.975 -0.451,41.64 30.574,65.241 51.796,97.695 39.279,59.63 35.957,162.3 -7.399,217.872 -54.917,69.568 -101.953,39.398 -133.19,41.93 -58.493,3.202 -60.427,34.391 -129.901,-70.705 z"
     style="fill:#000000;stroke:none" /><path
     inkscape:connector-curvature="0"
     transform="matrix(-1.67739,-0.0224516,-0.0211236,1.4709,1173.58,-293.017)"
     id="path113"
     d="m 246.571,470.864 c -12.239,12.496 -44.396,69.092 4.869,105.36 17.369,12.633 -16.377,59.495 -32.005,36.308 -27.57,-41.618 -8.831,-106.941 8.315,-130.188 11.652,-16.487 29.23,-22.676 18.821,-11.48 z"
     style="fill:url(#linearGradient1401);stroke:none" /><path
     inkscape:connector-curvature="0"
     transform="matrix(-1.67755,0,0,1.52374,1174.62,-318.082)"
     id="path111"
     d="m 256.513,459.837 c -19.915,17.717 -56.176,80.091 -3.288,120.606 17.37,12.632 -15.393,52.463 -33.79,32.089 -63.963,-70.82 1.669,-152.254 24.262,-180.25 20.192,-24.347 38.078,5.752 12.816,27.555 z"
     style="fill:#000000;stroke:#000000;stroke-width:0.97729802" /><path
     inkscape:connector-curvature="0"
     transform="matrix(1.26626,-0.0713667,-0.0459795,1.19574,202.143,-125.761)"
     d="m 399.56879,258.15753 a 58.37323,46.863022 0 1 1 -116.74646,0 58.37323,46.863022 0 1 1 116.74646,0 z"
     id="path114"
     style="fill:url(#linearGradient1403);stroke:none" /><path
     inkscape:connector-curvature="0"
     transform="matrix(1.30445,-0.0755326,0.0771251,1.34257,144.757,-177.617)"
     d="m 328.86324,320.64151 a 18.08748,27.131196 0 1 1 -36.17496,0 18.08748,27.131196 0 1 1 36.17496,0 z"
     id="path115"
     style="fill:url(#linearGradient1405);stroke:none" /><path
     inkscape:connector-curvature="0"
     transform="matrix(-1.81082,0.0495107,0.0317324,1.55333,1207.46,-284.777)"
     d="m 328.86324,320.64151 a 18.08748,27.131196 0 1 1 -36.17496,0 18.08748,27.131196 0 1 1 36.17496,0 z"
     id="path116"
     style="fill:url(#linearGradient1407);stroke:none" /><path
     inkscape:connector-curvature="0"
     transform="matrix(-0.823196,-0.00176123,-0.0182321,0.852662,913.674,-37.9902)"
     d="m 328.86324,320.64151 a 18.08748,27.131196 0 1 1 -36.17496,0 18.08748,27.131196 0 1 1 36.17496,0 z"
     id="path117"
     style="fill:#000000;stroke:none" /><path
     inkscape:connector-curvature="0"
     transform="matrix(0.59438,-0.0722959,0.0688176,0.705838,367.448,32.4186)"
     d="m 328.86324,320.64151 a 18.08748,27.131196 0 1 1 -36.17496,0 18.08748,27.131196 0 1 1 36.17496,0 z"
     id="path118"
     style="fill:#000000;stroke:none" /><path
     inkscape:connector-curvature="0"
     transform="matrix(-0.480323,-0.036454,-0.0467935,0.475606,813.496,87.0124)"
     d="m 328.86324,320.64151 a 18.08748,27.131196 0 1 1 -36.17496,0 18.08748,27.131196 0 1 1 36.17496,0 z"
     id="path121"
     style="fill:url(#linearGradient1409);stroke:none" /><path
     inkscape:connector-curvature="0"
     transform="matrix(0.35691,-0.0408211,0.0413232,0.398544,449.334,114.991)"
     d="m 328.86324,320.64151 a 18.08748,27.131196 0 1 1 -36.17496,0 18.08748,27.131196 0 1 1 36.17496,0 z"
     id="path122"
     style="fill:url(#linearGradient1411);stroke:none" /><path
     inkscape:connector-curvature="0"
     transform="matrix(1.25,0,0,1.25,185.454,-168.23)"
     id="path128"
     d="m 258.702,495.425 c 12.836,-29.103 40.114,-80.226 40.695,-119.758 0,-31.442 94.179,-38.951 101.737,-7.558 7.558,31.393 26.741,78.483 38.95,101.156 12.208,22.672 47.809,94.695 9.884,157.546 -34.157,55.644 -137.725,99.666 -193.01,-7.557 -18.603,-37.207 -15.285,-83.315 1.744,-123.829 z"
     style="fill:url(#linearGradient1413);stroke:none" /><path
     inkscape:connector-curvature="0"
     transform="matrix(1.38936,-0.111074,0.102211,1.30214,108.413,-165.938)"
     id="path112"
     d="m 242.905,473.815 c -11.263,18.967 -35.5,69.309 12.137,102.047 51.311,34.82 46.473,97.062 -15.607,61.955 -56.777,-31.789 -22.845,-137.778 -4.51,-162.266 12.107,-17.214 29.897,-38.031 7.98,-1.736 z"
     style="fill:url(#linearGradient1415);stroke:none" /><path
     inkscape:connector-curvature="0"
     transform="matrix(1.25,0,0,1.25,185.454,-167.505)"
     id="path109"
     d="m 256.513,449.72 c -17.465,28.508 -59.377,95.813 -3.288,130.723 75.569,46.355 54.173,92.711 -14.799,50.974 -97.109,-58.264 -11.825,-175.616 27.131,-220.338 44.444,-50.2 8.554,9.087 -9.044,38.641 z"
     style="fill:#000000;stroke:#000000;stroke-width:1.25" /><path
     inkscape:connector-curvature="0"
     id="path125"
     d="m 421.481,504.727 c 0,32.412 -29.272,74.516 -79.528,74.138 -51.828,0.455 -73.949,-41.726 -73.949,-74.138 0,-32.412 34.379,-58.717 76.739,-58.717 42.359,0 76.738,26.305 76.738,58.717 z"
     style="font-size:12px;fill:url(#linearGradient1417);stroke:none"
     transform="matrix(1.30209,0,0,1.22525,170.042,-153.557)" /><path
     inkscape:connector-curvature="0"
     id="path127"
     d="m 398.227,412.292 c -0.612,38.572 -23.18,47.671 -51.74,47.671 -28.561,0 -49.292,-5.694 -51.741,-47.671 0,-26.314 23.18,-41.542 51.741,-41.542 28.56,0 51.74,15.228 51.74,41.542 z"
     style="font-size:12px;fill:url(#linearGradient1419);stroke:none"
     transform="matrix(1.1868,0,0,1.06708,210.623,-100.078)" /><path
     inkscape:connector-curvature="0"
     transform="matrix(1.25,0,0,1.25,185.454,-167.505)"
     id="path129"
     d="m 234.285,456.475 c 17.716,-26.996 55.015,-68.364 6.977,5.813 -38.951,61.043 -14.403,100.273 -1.744,111.039 36.527,32.562 34.966,54.349 6.395,37.206 -61.625,-36.626 -48.835,-98.248 -11.628,-154.058 z"
     style="fill:url(#linearGradient1421);stroke:none" /><path
     inkscape:connector-curvature="0"
     transform="matrix(1.25,0,0,1.25,185.454,-167.505)"
     id="path131"
     d="m 490.662,467.52 c -15.319,-31.701 -64.134,-111.902 2.326,-18.603 60.461,84.297 18.022,143.013 10.464,148.827 -7.557,5.813 -33.137,17.44 -25.579,-2.907 7.557,-20.347 45.234,-58.973 12.789,-127.317 z"
     style="fill:url(#linearGradient1423);stroke:none" /><path
     inkscape:connector-curvature="0"
     transform="matrix(1.25,0,0,1.25,185.454,-167.505)"
     id="path132"
     d="m 220.915,716.921 c -40.442,-21.416 -99.252,4.124 -77.902,-54.066 4.276,-13.238 -6.375,-33.008 0.581,-45.926 8.139,-15.698 25.58,-12.209 36.045,-22.674 10.318,-10.891 16.859,-29.649 36.044,-26.742 19.184,2.907 31.945,26.461 45.344,55.229 9.883,20.638 44.941,49.664 42.65,72.758 -2.696,35.5 -43.027,42.19 -82.762,21.421 z"
     style="fill:url(#linearGradient1425);stroke:#e68c3f;stroke-width:6.25" /><path
     inkscape:connector-curvature="0"
     id="path177"
     d="m 415.072,495.764 c -3.007,24.906 -35.813,76.627 -69.518,81.534 -34.26,5.336 -66.432,-34.06 -74.147,-71.114 -9.889,-41.206 22.587,-57.6 71.938,-56.627 53.301,1.654 74.121,13.891 71.727,46.207 z"
     style="font-size:12px;fill:url(#linearGradient1427);stroke:none"
     transform="matrix(0.598206,0.268584,-0.239623,0.617213,700.568,140.464)" /><path
     inkscape:connector-curvature="0"
     transform="matrix(-1.1685,0.423145,0.475283,1.16478,728.343,-213.821)"
     id="path133"
     d="m 220.274,718.402 c -41.327,-23.59 -99.894,5.605 -77.261,-55.547 4.736,-13.068 -6.596,-33.552 0.36,-46.47 8.139,-15.698 25.801,-11.665 36.266,-22.13 10.318,-10.891 18.827,-27.868 38.012,-24.961 19.184,2.907 29.977,24.68 43.376,53.448 9.883,20.638 43.415,48.971 41.124,72.065 -2.696,35.5 -42.724,45.471 -81.877,23.595 z"
     style="fill:url(#linearGradient1429);stroke:#e68c3f;stroke-width:6.25067997" /><path
     inkscape:connector-curvature="0"
     transform="matrix(-0.945096,0.343745,0.424076,0.956058,714.328,-64.342)"
     id="path134"
     d="m 216.482,675.68 c -86.531,-57.503 -47.308,-70.96 -36.843,-81.425 10.318,-10.891 18.827,-27.868 38.012,-24.961 19.184,2.907 29.977,24.68 43.376,53.448 9.883,20.638 43.06,48.918 41.124,72.065 -2.616,27.11 -48.19,5.487 -85.669,-19.127 z"
     style="fill:url(#linearGradient1431);stroke:none" /><path
     inkscape:connector-curvature="0"
     transform="matrix(1.00431,-0.052286,-0.0174,1.04575,244.191,-28.4653)"
     id="path135"
     d="m 216.506,677.071 c -86.531,-57.503 -46.797,-73.57 -33.946,-81.28 15.399,-9.942 15.158,-30.831 34.343,-27.924 19.184,2.907 30.725,26.107 44.124,54.875 9.883,20.638 43.06,48.918 41.124,72.065 -2.616,27.11 -48.166,6.878 -85.645,-17.736 z"
     style="fill:url(#linearGradient1433);stroke:none" /><path
     inkscape:connector-curvature="0"
     id="path136"
     d="m 415.072,495.764 c -3.007,24.906 -35.813,76.627 -69.518,81.534 -34.26,5.336 -66.432,-34.06 -74.147,-71.114 -9.889,-41.206 22.587,-57.6 71.938,-56.627 53.301,1.654 74.121,13.891 71.727,46.207 z"
     style="font-size:12px;fill:#000000;stroke:none"
     transform="matrix(0.515584,0.215259,-0.206526,0.49467,713.3,222.559)" /><path
     inkscape:connector-curvature="0"
     id="path137"
     d="m 415.072,495.764 c -3.007,24.906 -35.813,76.627 -69.518,81.534 -34.26,5.336 -66.432,-34.06 -74.147,-71.114 -9.889,-41.206 22.587,-57.6 71.938,-56.627 53.301,1.654 74.121,13.891 71.727,46.207 z"
     style="font-size:12px;fill:url(#linearGradient1435);stroke:none"
     transform="matrix(0.351231,0.149463,-0.128856,0.343469,724.522,318.291)" /><path
     inkscape:connector-curvature="0"
     transform="matrix(1.25,0,0,1.25,185.454,-167.505)"
     id="path119"
     d="m 309.954,338.729 c 7.147,-6.77 24.811,-27.066 57.961,-5.755 6.162,4.01 11.162,4.377 23.021,9.455 23.726,9.749 12.382,33.259 -12.744,41.108 -10.758,3.489 -20.536,16.556 -40.129,15.439 -16.734,-0.977 -21.119,-11.874 -31.398,-17.906 -18.269,-10.311 -20.965,-24.254 -11.1,-31.653 9.866,-7.399 13.725,-10.059 14.389,-10.688 z"
     style="fill:url(#linearGradient1437);stroke:#e68c3f;stroke-width:3.75" /><path
     inkscape:connector-curvature="0"
     transform="matrix(1.25,0,0,1.25,185.454,-167.505)"
     id="path120"
     d="m 391.251,357.645 c -9.883,0.581 -31.393,22.091 -54.066,22.091 -22.673,0 -36.044,-20.929 -39.532,-20.929"
     style="fill:none;stroke:#e68c3f;stroke-width:2.5" /><path
     inkscape:connector-curvature="0"
     transform="matrix(0.627885,0,0,0.595666,392.366,51.8173)"
     id="path123"
     d="m 309.954,338.729 c 7.147,-6.77 29.691,-25.348 59.588,-6.328 6.299,3.766 12.804,7.865 22.478,13.464 19.162,11.748 9.671,28.678 -13.286,39.39 -10.418,4.495 -27.593,14.415 -40.671,13.721 -14.533,-1.408 -23.935,-11.399 -33.567,-17.906 -17.67,-12.303 -16.597,-22.237 -8.389,-30.508 6.205,-5.679 13.183,-11.204 13.847,-11.833 z"
     style="fill:url(#linearGradient3540);stroke:none" /></g></svg>