<?xml version="1.0" encoding="UTF-8" standalone="no"?>
<!-- Generator: Adobe Illustrator 16.0.0, SVG Export Plug-In . SVG Version: 6.00 Build 0)  -->

<svg
   xmlns:dc="http://purl.org/dc/elements/1.1/"
   xmlns:cc="http://creativecommons.org/ns#"
   xmlns:rdf="http://www.w3.org/1999/02/22-rdf-syntax-ns#"
   xmlns:svg="http://www.w3.org/2000/svg"
   xmlns="http://www.w3.org/2000/svg"
   xmlns:sodipodi="http://sodipodi.sourceforge.net/DTD/sodipodi-0.dtd"
   xmlns:inkscape="http://www.inkscape.org/namespaces/inkscape"
   version="1.1"
   id="Layer_1"
   x="0px"
   y="0px"
   width="512px"
   height="512px"
   viewBox="0 0 512 512"
   enable-background="new 0 0 512 512"
   xml:space="preserve"
   inkscape:version="0.48.5 r10040"
   sodipodi:docname="clock-time-7.svg"><metadata
   id="metadata3001"><rdf:RDF><cc:Work
       rdf:about=""><dc:format>image/svg+xml</dc:format><dc:type
         rdf:resource="http://purl.org/dc/dcmitype/StillImage" /></cc:Work></rdf:RDF></metadata><defs
   id="defs2999" /><sodipodi:namedview
   pagecolor="#ffffff"
   bordercolor="#666666"
   borderopacity="1"
   objecttolerance="10"
   gridtolerance="10"
   guidetolerance="10"
   inkscape:pageopacity="0"
   inkscape:pageshadow="2"
   inkscape:window-width="1440"
   inkscape:window-height="837"
   id="namedview2997"
   showgrid="false"
   inkscape:zoom="1.1933594"
   inkscape:cx="256"
   inkscape:cy="256"
   inkscape:window-x="-8"
   inkscape:window-y="-8"
   inkscape:window-maximized="1"
   inkscape:current-layer="Layer_1" />
<path
   d="M511.5,112c0,29.938-11.906,57-31.063,77.094c-27.156-73.406-89.063-129.875-165.813-149.406  C335.156,15.594,365.344,0,399.5,0C461.375,0,511.5,50.125,511.5,112z M196.359,39.688C175.828,15.594,145.641,0,111.5,0  C49.641,0-0.5,50.125-0.5,112c0,29.938,11.922,57,31.063,77.094C57.719,115.688,119.641,59.219,196.359,39.688z M463.5,272  c0,50.531-18.031,96.813-48,132.875V464c0,26.5-21.5,48-48,48c-24.563,0-44.594-18.531-47.438-42.344  c-20.344,6.656-42,10.344-64.563,10.344s-44.234-3.688-64.563-10.344C188.094,493.469,168.063,512,143.5,512c-26.5,0-48-21.5-48-48  v-59.125c-29.953-36.063-48-82.344-48-132.875c0-114.875,93.125-208,208-208S463.5,157.125,463.5,272z M431.5,272  c0-97.063-78.969-176-176-176c-97.047,0-176,78.938-176,176c0,97.031,78.953,176,176,176C352.531,448,431.5,369.031,431.5,272z   M271.5,128h-32v144c0,2.813,0.734,5.563,2.141,8l64.016,110.844l27.688-16L271.5,267.719V128z"
   id="path2995"
   style="fill:#aa0000" />
</svg>